# This file uses centimeters as units for non-parametric coordinates.

mtllib Altar.mtl
g default
v -0.698540 -1.090847 0.467247
v 0.698540 -1.090847 0.467247
v -0.525202 -0.657983 0.387543
v 0.525202 -0.657983 0.387543
v -0.525202 -0.657983 -0.387543
v 0.525202 -0.657983 -0.387543
v -0.698540 -1.090847 -0.467247
v 0.698540 -1.090847 -0.467247
v 0.698540 -1.010496 0.467247
v -0.698540 -1.010496 0.467247
v -0.698540 -1.010496 -0.467247
v 0.698540 -1.010496 -0.467247
v 0.525202 -0.731982 0.387543
v -0.525202 -0.731982 0.387543
v -0.525202 -0.731982 -0.387543
v 0.525202 -0.731982 -0.387543
v -0.741757 -1.090847 0.510465
v 0.741757 -1.090847 0.510465
v 0.741757 -1.010496 0.510465
v -0.741757 -1.010496 0.510465
v -0.741757 -1.010496 -0.510465
v 0.741757 -1.010496 -0.510465
v 0.741757 -1.090847 -0.510465
v -0.741757 -1.090847 -0.510465
v 0.568420 -0.731982 0.430761
v -0.568420 -0.731982 0.430761
v 0.568420 -0.657983 0.430761
v -0.568420 -0.657983 0.430761
v -0.568420 -0.731982 -0.430761
v -0.568420 -0.657983 -0.430761
v 0.568420 -0.657983 -0.430761
v 0.568420 -0.731982 -0.430761
v -0.525202 -0.691860 0.387543
v 0.525202 -0.691860 0.387543
v 0.525202 -0.691860 -0.387543
v -0.525202 -0.691860 -0.387543
vt 0.375000 0.000000
vt 0.625000 0.000000
vt 0.375000 0.250000
vt 0.625000 0.250000
vt 0.375000 0.500000
vt 0.625000 0.500000
vt 0.375000 0.750000
vt 0.625000 0.750000
vt 0.375000 1.000000
vt 0.625000 1.000000
vt 0.875000 0.000000
vt 0.875000 0.250000
vt 0.125000 0.000000
vt 0.125000 0.250000
vt 0.625000 0.030139
vt 0.375000 0.030139
vt 0.125000 0.030139
vt 0.375000 0.719861
vt 0.625000 0.719861
vt 0.875000 0.030139
vt 0.625000 0.222244
vt 0.375000 0.222244
vt 0.125000 0.222244
vt 0.375000 0.527756
vt 0.625000 0.527756
vt 0.875000 0.222244
vt 0.375000 0.000000
vt 0.625000 0.000000
vt 0.625000 0.030139
vt 0.375000 0.030139
vt 0.375000 0.719861
vt 0.625000 0.719861
vt 0.625000 0.750000
vt 0.375000 0.750000
vt 0.875000 0.000000
vt 0.875000 0.030139
vt 0.125000 0.000000
vt 0.125000 0.030139
vt 0.375000 0.222244
vt 0.625000 0.222244
vt 0.625000 0.250000
vt 0.375000 0.250000
vt 0.125000 0.222244
vt 0.125000 0.250000
vt 0.375000 0.500000
vt 0.625000 0.500000
vt 0.625000 0.527756
vt 0.375000 0.527756
vt 0.875000 0.222244
vt 0.875000 0.250000
vt 0.375000 0.250000
vt 0.625000 0.250000
vt 0.625000 0.500000
vt 0.375000 0.500000
vn 0.000000 0.000000 1.000000
vn 0.000000 0.000000 1.000000
vn 0.000000 0.000000 1.000000
vn 0.000000 0.000000 1.000000
vn 0.000000 1.000000 0.000000
vn 0.000000 1.000000 0.000000
vn 0.000000 1.000000 0.000000
vn 0.000000 1.000000 0.000000
vn 0.000000 0.000000 -1.000000
vn 0.000000 0.000000 -1.000000
vn 0.000000 0.000000 -1.000000
vn 0.000000 0.000000 -1.000000
vn 0.000000 -1.000000 0.000000
vn 0.000000 -1.000000 0.000000
vn 0.000000 -1.000000 -0.000000
vn 0.000000 -1.000000 -0.000000
vn 1.000000 0.000000 0.000000
vn 1.000000 0.000000 0.000000
vn 1.000000 0.000000 0.000000
vn 1.000000 0.000000 0.000000
vn -1.000000 0.000000 0.000000
vn -1.000000 0.000000 0.000000
vn -1.000000 0.000000 0.000000
vn -1.000000 0.000000 0.000000
vn 0.000000 0.275133 0.961406
vn 0.000000 0.275133 0.961406
vn 0.000000 0.275133 0.961406
vn 0.000000 0.275133 0.961406
vn -0.849002 0.528389 0.000000
vn -0.849002 0.528389 0.000000
vn -0.849002 0.528389 0.000000
vn -0.849002 0.528389 0.000000
vn 0.000000 0.275133 -0.961406
vn 0.000000 0.275133 -0.961406
vn 0.000000 0.275133 -0.961406
vn 0.000000 0.275133 -0.961406
vn 0.849002 0.528389 0.000000
vn 0.849002 0.528389 0.000000
vn 0.849002 0.528389 0.000000
vn 0.849002 0.528389 0.000000
vn 0.000000 0.000000 1.000000
vn 0.000000 0.000000 1.000000
vn 0.000000 0.000000 1.000000
vn 0.000000 0.000000 1.000000
vn -1.000000 0.000000 0.000000
vn -1.000000 0.000000 0.000000
vn -1.000000 0.000000 0.000000
vn -1.000000 0.000000 0.000000
vn 0.000000 0.000000 -1.000000
vn 0.000000 0.000000 -1.000000
vn 0.000000 0.000000 -1.000000
vn 0.000000 0.000000 -1.000000
vn 1.000000 0.000000 0.000000
vn 1.000000 0.000000 0.000000
vn 1.000000 0.000000 0.000000
vn 1.000000 0.000000 0.000000
vn 0.000000 -1.000000 -0.000000
vn 0.000000 -1.000000 -0.000000
vn 0.000000 1.000000 -0.000000
vn 0.000000 1.000000 -0.000000
vn 0.000000 1.000000 -0.000000
vn 0.000000 1.000000 -0.000000
vn 0.000000 1.000000 0.000000
vn 0.000000 1.000000 0.000000
vn 0.000000 1.000000 0.000000
vn 0.000000 1.000000 0.000000
vn 0.000000 -1.000000 0.000000
vn 0.000000 -1.000000 0.000000
vn 0.000000 -1.000000 0.000000
vn 0.000000 -1.000000 0.000000
vn 0.000000 -1.000000 0.000000
vn 0.000000 -1.000000 0.000000
vn 0.000000 1.000000 -0.000000
vn 0.000000 1.000000 -0.000000
vn 0.000000 1.000000 -0.000000
vn 0.000000 1.000000 -0.000000
vn 0.000000 -1.000000 -0.000000
vn 0.000000 -1.000000 -0.000000
vn 0.000000 1.000000 0.000000
vn 0.000000 1.000000 0.000000
vn 0.000000 1.000000 0.000000
vn 0.000000 1.000000 0.000000
vn 0.000000 -1.000000 -0.000000
vn 0.000000 -1.000000 -0.000000
vn 0.000000 0.000000 -1.000000
vn 0.000000 0.000000 -1.000000
vn 0.000000 0.000000 -1.000000
vn 0.000000 0.000000 -1.000000
vn -1.000000 0.000000 0.000000
vn -1.000000 0.000000 0.000000
vn -1.000000 0.000000 0.000000
vn -1.000000 0.000000 0.000000
vn 0.000000 0.000000 1.000000
vn 0.000000 0.000000 1.000000
vn 0.000000 0.000000 1.000000
vn 0.000000 0.000000 1.000000
vn 1.000000 0.000000 0.000000
vn 1.000000 0.000000 0.000000
vn 1.000000 0.000000 0.000000
vn 1.000000 0.000000 0.000000
s off
g Altar group1
usemtl initialShadingGroup
f 17/27/1 18/28/2 19/29/3 20/30/4
f 33/51/5 34/52/6 35/53/7 36/54/8
f 21/31/9 22/32/10 23/33/11 24/34/12
s 1
f 7/7/13 8/8/14 2/10/15 1/9/16
s off
f 18/28/17 23/35/18 22/36/19 19/29/20
f 24/37/21 17/27/22 20/30/23 21/38/24
f 10/16/25 9/15/26 13/21/27 14/22/28
f 11/17/29 10/16/30 14/22/31 15/23/32
f 15/24/33 16/25/34 12/19/35 11/18/36
f 9/15/37 12/20/38 16/26/39 13/21/40
f 26/39/41 25/40/42 27/41/43 28/42/44
f 29/43/45 26/39/46 28/42/47 30/44/48
f 30/45/49 31/46/50 32/47/51 29/48/52
f 25/40/53 32/49/54 31/50/55 27/41/56
s 1
f 1/1/16 2/2/15 18/28/57 17/27/58
s 2
f 9/15/59 10/16/60 20/30/61 19/29/62
f 11/18/63 12/19/64 22/32/65 21/31/66
s 1
f 8/8/14 7/7/13 24/34/67 23/33/68
f 2/2/15 8/11/14 23/35/68 18/28/57
s 2
f 12/20/64 9/15/59 19/29/62 22/36/65
s 1
f 7/13/13 1/1/16 17/27/58 24/37/67
s 2
f 10/16/60 11/17/63 21/38/66 20/30/61
s 3
f 14/22/69 13/21/70 25/40/71 26/39/72
s 4
f 4/4/73 3/3/74 28/42/75 27/41/76
s 3
f 15/23/77 14/22/69 26/39/72 29/43/78
s 4
f 3/3/74 5/14/79 30/44/80 28/42/75
f 5/5/79 6/6/81 31/46/82 30/45/80
s 3
f 16/25/83 15/24/77 29/48/78 32/47/84
f 13/21/70 16/26/83 32/49/84 25/40/71
s 4
f 6/12/81 4/4/73 27/41/76 31/50/82
s off
f 3/3/85 4/4/86 34/52/87 33/51/88
f 4/4/89 6/6/90 35/53/91 34/52/92
f 6/6/93 5/5/94 36/54/95 35/53/96
f 5/5/97 3/3/98 33/51/99 36/54/100
